<svg xmlns="http://www.w3.org/2000/svg" viewBox="0 0 800 675">
  <defs><linearGradient id="p" x2="1" y2="1"><stop stop-color="#1c1924"/><stop offset="1" stop-color="#0c0f15"/></linearGradient></defs>
  <rect width="800" height="675" fill="#090b10"/>
  <rect x="18" y="18" width="764" height="639" rx="8" fill="url(#p)" stroke="#b9a5d2" stroke-opacity=".2"/>
  <rect x="18" y="18" width="764" height="45" rx="8" fill="#17151e"/>
  <text x="43" y="46" fill="#a6a1ad" font-size="11" font-family="Arial" letter-spacing="2">OBSIDIAN / COW VAULT</text>
  <rect x="36" y="80" width="210" height="558" rx="4" fill="#10131a" stroke="#fff" stroke-opacity=".05"/>
  <text x="54" y="112" fill="#d4d2d8" font-size="10" font-family="Arial" letter-spacing="2">EXPLORER</text>
  <g font-family="Arial" font-size="11" fill="#858a95">
    <text x="58" y="151">⌄  Campaign</text><text x="78" y="184">⌄  Locations</text><text x="98" y="217" fill="#cdb5f0">◇  Ashen Coast.md</text><text x="98" y="250">◇  Greyhaven.md</text><text x="78" y="283">›  Characters</text><text x="78" y="316">›  Sessions</text><text x="58" y="358">⌄  Maps</text><text x="78" y="391">▧  northern-reach.webp</text>
  </g>
  <rect x="264" y="80" width="500" height="558" rx="4" fill="#12151d" stroke="#fff" stroke-opacity=".05"/>
  <g transform="translate(301 118)">
    <text y="22" fill="#f0edf3" font-size="28" font-family="Georgia">The Ashen Coast</text>
    <text y="52" fill="#81788c" font-size="10" font-family="Arial" letter-spacing="3">LOCATION · DISCOVERED</text>
    <line y1="75" x2="425" y2="75" stroke="#fff" stroke-opacity=".08"/>
    <text y="112" fill="#a9adb6" font-size="12" font-family="Arial">Beyond the salt marshes, the old road vanishes beneath</text>
    <text y="134" fill="#a9adb6" font-size="12" font-family="Arial">a coast covered in pale ash. No fire has burned here.</text>
    <rect y="168" width="425" height="142" rx="4" fill="#171d25"/>
    <path d="M0 273c61-57 89-35 140-70 72-49 112-12 169-32 39-14 72-22 116-3v142H0Z" fill="#354239"/>
    <path d="M105 240c72-35 132-28 218-51" fill="none" stroke="#b5bbc3" stroke-opacity=".25" stroke-dasharray="5 7"/>
    <circle cx="230" cy="204" r="5" fill="#cdb5f0"/>
    <text y="350" fill="#d8d5dc" font-size="16" font-family="Georgia">Linked mentions</text>
    <g fill="#957cae" font-size="11" font-family="Arial"><text y="380">Greyhaven</text><text y="406">The Northern Reach</text><text y="432">Session 07 — The quiet tide</text></g>
  </g>
</svg>
